HIERARCHY
ROOT Hips
{
  OFFSET 43.0842 91.1655 101.099
  CHANNELS 6 Xposition Yposition Zposition Zrotation Xrotation Yrotation
  JOINT LeftUpLeg
  {
    OFFSET 8.64259 1.95398 -2.38835
    CHANNELS 3 Zrotation Xrotation Yrotation
    JOINT LeftLeg
    {
      OFFSET 43.7702 0 0
      CHANNELS 3 Zrotation Xrotation Yrotation
      JOINT LeftFoot
      {
        OFFSET 40.6238 0 0
        CHANNELS 3 Zrotation Xrotation Yrotation
        JOINT LeftToeBase
        {
          OFFSET 12.7242 0 0
          CHANNELS 3 Zrotation Xrotation Yrotation
          End Site
          {
            OFFSET 0 0 0
          }
        }
      }
    }
  }
  JOINT RightUpLeg
  {
    OFFSET -8.2249 1.95398 -2.59336
    CHANNELS 3 Zrotation Xrotation Yrotation
    JOINT RightLeg
    {
      OFFSET 43.5653 0 0
      CHANNELS 3 Zrotation Xrotation Yrotation
      JOINT RightFoot
      {
        OFFSET 40.6238 0 0
        CHANNELS 3 Zrotation Xrotation Yrotation
        JOINT RightToeBase
        {
          OFFSET 12.7242 0 0
          CHANNELS 3 Zrotation Xrotation Yrotation
          End Site
          {
            OFFSET 0 0 0
          }
        }
      }
    }
  }
  JOINT Spine
  {
    OFFSET 0.165834 0.87714 6.61349
    CHANNELS 3 Zrotation Xrotation Yrotation
    JOINT Spine1
    {
      OFFSET 7.38963 1.71661e-005 0
      CHANNELS 3 Zrotation Xrotation Yrotation
      JOINT Spine2
      {
        OFFSET 11.9445 1.14441e-005 0
        CHANNELS 3 Zrotation Xrotation Yrotation
        JOINT Spine3
        {
          OFFSET 14.7254 4.19617e-005 0
          CHANNELS 3 Zrotation Xrotation Yrotation
          JOINT Spine4
          {
            OFFSET 10.9679 0 0
            CHANNELS 3 Zrotation Xrotation Yrotation
            JOINT RightShoulder
            {
              OFFSET 2.46616 -1.6653 3.69651
              CHANNELS 3 Zrotation Xrotation Yrotation
              JOINT RightArm
              {
                OFFSET 13.0012 0 0
                CHANNELS 3 Zrotation Xrotation Yrotation
                JOINT RightForeArm
                {
                  OFFSET 28.7848 1.52588e-005 0
                  CHANNELS 3 Zrotation Xrotation Yrotation
                  JOINT RightHand
                  {
                    OFFSET 26.5688 1.52588e-005 0
                    CHANNELS 3 Zrotation Xrotation Yrotation
                    End Site
                    {
                      OFFSET 0 0 0
                    }
                  }
                }
              }
            }
            JOINT LeftShoulder
            {
              OFFSET 2.38034 -1.29275 -3.7523
              CHANNELS 3 Zrotation Xrotation Yrotation
              JOINT LeftArm
              {
                OFFSET 16.3182 6.10351e-005 0
                CHANNELS 3 Zrotation Xrotation Yrotation
                JOINT LeftForeArm
                {
                  OFFSET 27.0901 0 0
                  CHANNELS 3 Zrotation Xrotation Yrotation
                  JOINT LeftHand
                  {
                    OFFSET 24.5451 1.52588e-005 0
                    CHANNELS 3 Zrotation Xrotation Yrotation
                    End Site
                    {
                      OFFSET 0 0 0
                    }
                  }
                }
              }
            }
            JOINT Neck
            {
              OFFSET 5.0226 -0.0266342 0
              CHANNELS 3 Zrotation Xrotation Yrotation
              JOINT Head
              {
                OFFSET 6.69364 2.86102e-005 0
                CHANNELS 3 Zrotation Xrotation Yrotation
                End Site
                {
                  OFFSET 0 0 0
                }
              }
            }
          }
        }
      }
    }
  }
}
MOTION
Frames:	9
Frame Time:	0.0333333
-41.7538 86.4257 -6.47125 83.1353 -42.1608 60.2237 -169.717 7.85243 90.9954 -50.2572 27.3907 -3.1898 54.2506 -8.56474 -6.79804 36.2302 6.18666 6.52266 -161.253 39.5497 68.5935 -52.935 -12.0777 -14.1536 68.4438 -4.78973 -14.2165 27.6284 1.58736 -2.42836 -1.29046 7.12524 -91.5973 12.5787 -3.32477 -2.80378 0.909282 -3.44488 -2.65474 -21.6208 -2.32902 -3.67281 -1.6082 -2.32901 -3.67281 97.7846 -39.9033 -89.7913 -20.9948 1.25731 -20.4065 -16.2656 35.3349 -24.2252 -11.2316 -1.66101 6.65549 -116.564 -62.2249 47.2432 14.3097 -9.88887 -42.0234 4.89062 7.81677 -80.6202 46.2174 6.90949 3.26465 1.13529 -3.41829 0.370474 9.99313 -2.17705 10.0909 
-44.7992 86.3159 -7.71759 85.245 -32.9053 65.8998 -171.34 4.16524 89.1277 -41.4265 23.2667 -3.62413 53.6807 -8.35329 -9.78222 41.2608 12.1136 8.6402 -163.887 39.4357 70.7555 -49.8934 -10.5477 -13.006 68.0788 -4.68619 -11.3423 27.0026 1.83353 -2.09741 -1.22275 7.11326 -91.2478 12.6154 -3.02388 -2.13995 0.946409 -3.11511 -2.00474 -21.5918 -2.24125 -2.94963 -1.57912 -2.24124 -2.94963 98.6305 -36.263 -88.6379 -20.7303 5.55439 -22.9463 -16.2466 33.1628 -31.5995 -12.3293 -2.07551 4.26009 -116.956 -61.983 46.6506 13.4837 -2.00051 -49.5402 8.75354 10.0226 -84.2139 42.2345 6.18329 3.05257 -1.40344 -6.17421 -0.90885 10.5402 -4.94811 8.08857 
-47.8711 85.7983 -8.51765 85.1372 -23.7051 70.4977 -171.161 1.95539 89.4784 -32.6924 17.0266 -4.88534 59.3192 -2.85782 7.59978 42.2765 12.8911 10.1449 -164.946 40.826 71.909 -48.6822 -10.1162 -11.5403 66.7704 -3.53682 -10.6593 27.4976 1.5802 -2.21137 -1.02637 7.03807 -91.0757 12.775 -2.5528 -1.84611 1.10541 -2.63157 -1.73195 -21.4314 -1.88014 -2.52785 -1.41878 -1.88011 -2.52785 99.4604 -33.0711 -87.3464 -22.5982 13.0027 -25.45 -14.3614 30.0159 -39.1245 -12.701 -2.24152 1.65791 -116.09 -61.2837 47.3821 12.7265 5.02 -56.5929 11.3868 11.0649 -86.4959 37.44 5.04161 1.04205 -3.29357 -9.15679 -3.50268 11.0374 -7.72779 7.2539 
-51.0173 86.2934 -8.67092 85.1035 -14.9399 74.0201 -170.866 3.26581 91.7448 -28.0714 10.2255 -6.13357 61.3598 -2.6681 13.3984 38.44 8.05195 9.032 -166.988 40.2335 72.3717 -44.4425 -9.83789 -9.97139 64.4242 -2.69739 -9.8949 27.8669 1.28856 -2.01175 -0.892647 7.05794 -90.7873 12.7477 -2.14919 -1.31836 1.07798 -2.2051 -1.22247 -21.4613 -1.65365 -1.90332 -1.44866 -1.65365 -1.90332 99.546 -28.9625 -87.5469 -23.0618 17.4878 -25.9376 -13.602 31.2858 -44.9882 -12.2235 -2.14755 -0.37527 -113.076 -59.6035 50.362 11.6145 9.27862 -63.5374 12.4805 12.9103 -89.3838 37.5289 4.92168 0.0128387 -5.51253 -12.1271 -6.75375 13.0855 -10.6314 5.21606 
-54.205 86.8017 -7.84885 84.9202 -5.93325 75.9735 -171.872 8.57026 94.2113 -25.9931 9.57628 -5.2804 62.9353 -1.27639 9.94019 36.7614 5.94257 8.56659 -168.789 39.4831 71.8488 -41.1266 -9.76492 -9.01667 62.628 -2.2739 -7.81328 30.483 -1.13209 0.503922 -0.876248 7.101 -90.3137 12.6698 -1.88992 -0.404434 1.00018 -1.90591 -0.320833 -21.5437 -1.68101 -0.953881 -1.53101 -1.68098 -0.953878 99.0357 -27.4644 -88.7626 -21.5456 23.7593 -25.7872 -13.5292 30.9289 -49.8044 -12.8158 -2.3065 -0.396176 -109.253 -57.4975 54.3323 13.3511 13.2617 -69.6842 14.293 11.2458 -92.2172 32.2197 4.21854 0.734773 -7.74383 -15.2191 -11.3046 14.5738 -13.8132 3.13186 
-56.0515 87.7041 -6.30658 84.514 2.62508 78.5348 -171.654 13.427 97.7851 -24.0214 9.39226 -4.89397 60.9471 -2.99077 4.06425 36.7899 7.85383 4.70666 -170.976 37.804 72.0447 -38.3032 -8.21356 -8.41591 61.1899 -1.33331 -4.99312 32.8241 -3.04636 2.54171 -0.995202 7.18045 -89.9253 12.5168 -1.94153 0.374373 0.847228 -1.92318 0.459489 -21.6994 -1.96431 -0.226683 -1.68677 -1.96427 -0.226683 98.3533 -29.6935 -89.9274 -19.6708 30.5561 -27.7269 -14.5603 28.7649 -52.9214 -11.5863 -2.01149 -1.46421 -105.551 -55.2889 58.3081 15.7015 14.6226 -73.9749 13.3596 9.25191 -94.4502 28.8417 3.706 0.509315 -11.0309 -17.5226 -14.5556 16.1013 -16.7417 0.384181 
-56.6769 88.7686 -5.4995 85.5641 8.62871 80.6281 -173.015 12.6665 98.5181 -18.9989 9.30796 -3.31684 59.3483 -4.42579 2.53157 36.6031 5.93854 8.06787 -174.139 34.107 73.3229 -34.1178 -5.04533 -7.59765 60.6004 -1.44607 -1.41838 35.0505 -4.6955 4.30605 -0.868914 7.31183 -89.764 12.2551 -1.61514 0.651477 0.584985 -1.58488 0.72194 -21.958 -1.73628 0.135805 -1.94537 -1.73625 0.135804 97.8465 -31.913 -90.6572 -17.8535 36.2368 -29.0613 -15.96 23.5755 -55.8033 -11.9092 -2.09461 -1.50913 -104.638 -54.547 59.2483 17.3189 15.0015 -76.45 12.122 8.50011 -95.1972 26.3827 3.26106 -1.26179 -14.9866 -19.6292 -14.2737 15.0659 -20.0597 -3.53321 
-56.6753 89.0151 -5.10027 86.5793 12.1605 82.6989 -173.762 12.6778 99.5511 -19.4775 7.73054 -2.13699 60.8419 -3.88276 3.17964 36.0753 5.19281 8.08042 -178.221 29.9342 75.2175 -28.688 -3.23854 -5.26484 64.123 -6.18645 0.3225 36.0814 -4.72497 2.51951 -0.678018 7.32915 -89.7542 12.2194 -1.23115 0.627958 0.548824 -1.20231 0.681533 -21.9907 -1.36297 0.228859 -1.97812 -1.36294 0.228859 97.4488 -33.3074 -91.2446 -15.2504 39.9671 -29.7039 -16.6083 18.8776 -58.3593 -12.0215 -2.13627 -2.03756 -103.248 -53.8545 60.8778 15.9438 14.6991 -78.1209 11.1157 9.21124 -95.0843 25.0223 3.0887 -1.18888 -19.2407 -21.1606 -13.2958 14.4363 -22.7532 -7.51181 
-56.589 89.4276 -4.7201 87.7512 15.1521 84.2863 -173.726 12.2969 101.122 -18.4581 7.6902 -1.30555 60.5943 -4.15401 1.36337 35.5099 4.72402 7.46536 178.843 27.2721 76.8877 -26.4769 -0.606336 -3.79036 65.7736 -8.05801 3.17348 36.225 -4.37429 0.9411 -0.53536 7.33385 -89.7423 12.2088 -0.941962 0.619457 0.538049 -0.913735 0.660301 -21.9995 -1.08456 0.307701 -1.98682 -1.08456 0.3077 97.2575 -35.2247 -91.3412 -12.3554 44.3003 -29.9216 -15.8662 15.689 -61.3004 -11.2372 -1.95688 -2.49839 -102.61 -53.5652 61.6476 14.6538 14.1248 -80.073 9.73216 9.70828 -94.2321 22.8643 2.79589 -1.58886 -21.3708 -22.2462 -13.1342 12.6389 -24.247 -9.18081 
